<?xml version="1.0" standalone="no"?>
<!DOCTYPE svg PUBLIC "-//W3C//DTD SVG 20010904//EN"
 "http://www.w3.org/TR/2001/REC-SVG-20010904/DTD/svg10.dtd">
<svg version="1.0" xmlns="http://www.w3.org/2000/svg"
 width="207.000000pt" height="206.000000pt" viewBox="0 0 207.000000 206.000000"
 preserveAspectRatio="xMidYMid meet">

<g transform="translate(0.000000,206.000000) scale(0.100000,-0.100000)"
fill="#000000" stroke="none">
<path d="M0 1030 l0 -1030 1035 0 1035 0 0 1030 0 1030 -1035 0 -1035 0 0
-1030z m1293 500 c24 -7 59 -32 96 -69 68 -68 73 -70 174 -81 107 -11 140 -45
104 -106 -6 -12 -29 -54 -50 -94 -28 -54 -41 -69 -48 -59 -7 11 -11 11 -22 -4
-12 -18 -14 -16 -32 22 -15 35 -22 41 -49 41 -58 0 -76 -10 -76 -41 0 -16 4
-29 9 -29 5 0 24 -12 41 -27 28 -23 35 -25 52 -14 24 15 26 14 30 -23 2 -17
-2 -31 -9 -33 -8 -3 -13 4 -13 18 0 17 -3 20 -11 12 -8 -8 -26 0 -64 29 -51
38 -53 41 -48 76 3 21 7 38 8 39 5 7 100 20 111 16 7 -2 18 -18 24 -34 15 -36
26 -37 35 -1 l7 27 11 -23 c9 -21 13 -17 49 48 59 111 49 140 -50 140 -72 0
-146 25 -162 54 -24 45 -90 89 -155 103 -89 19 -169 16 -213 -6 -29 -15 -52
-18 -107 -14 -67 4 -74 3 -165 -42 -174 -85 -191 -104 -92 -105 49 0 56 -15
11 -24 -40 -8 -145 -59 -184 -90 l-30 -24 92 5 c101 6 163 -2 163 -20 0 -7
-33 -32 -72 -56 l-73 -42 45 5 c43 6 44 5 25 -10 -19 -15 -17 -16 35 -10 30 4
64 9 75 12 11 2 27 0 35 -5 12 -8 10 -15 -15 -41 -17 -18 -58 -55 -92 -83 -35
-28 -63 -54 -63 -57 0 -4 26 -23 59 -43 110 -68 156 -139 186 -284 9 -43 17
-79 19 -80 6 -7 135 98 183 149 67 71 137 180 158 246 20 59 6 58 153 16 101
-29 107 -29 126 -2 20 28 20 58 1 58 -22 0 -18 16 6 34 13 9 19 21 16 30 -3 8
-1 18 5 22 8 5 9 -13 5 -66 -5 -56 -11 -78 -28 -96 -28 -30 -43 -30 -148 1
-47 14 -90 25 -96 25 -6 0 -19 -24 -28 -52 -21 -65 -83 -161 -154 -238 -67
-73 -201 -176 -212 -164 -4 5 -18 56 -30 113 -32 155 -70 208 -213 294 l-56
33 79 63 c43 35 86 72 96 84 20 22 31 22 -141 0 -35 -4 -47 -3 -42 5 4 7 -6
14 -26 20 l-33 8 65 37 c36 19 73 39 83 42 9 4 17 13 17 21 0 16 -91 18 -195
5 -33 -5 -62 -7 -64 -5 -9 8 77 75 136 106 35 18 63 36 63 41 0 4 -14 7 -32 7
l-32 0 29 30 c16 17 81 56 144 88 111 55 118 57 196 57 58 1 88 6 110 18 25
15 46 17 125 13 52 -3 112 -10 133 -16z m-39 -91 c8 -8 0 -9 -29 -5 -22 4 -51
3 -65 -2 l-24 -9 25 -16 c17 -11 35 -14 64 -8 50 9 97 0 103 -18 3 -9 0 -11
-8 -6 -7 4 -16 2 -21 -6 -7 -11 -9 -10 -9 4 0 12 -8 17 -30 17 -16 0 -30 -4
-30 -8 0 -14 24 -32 43 -32 10 0 15 -4 12 -10 -8 -13 1 -13 25 0 12 6 21 7 25
0 4 -6 15 -6 31 0 34 13 104 13 104 -1 0 -7 21 -10 60 -7 49 2 60 0 60 -12 0
-17 19 -40 32 -40 4 0 8 9 8 20 0 11 5 20 10 20 12 0 13 -20 1 -39 -6 -10 -47
-14 -162 -17 -85 -3 -160 -7 -167 -9 -7 -3 -24 -31 -38 -62 -14 -32 -29 -66
-34 -75 -8 -14 -2 -23 27 -45 20 -15 62 -52 94 -80 55 -50 71 -57 131 -57 14
1 15 -3 7 -13 -17 -20 -35 -16 -140 32 -137 63 -139 62 -154 -5 -14 -66 -44
-135 -45 -105 -1 55 -52 79 -114 55 -14 -5 -26 -8 -26 -5 0 2 14 26 30 52 30
47 37 77 22 87 -4 3 -25 1 -45 -4 -20 -4 -37 -5 -37 -1 0 3 16 21 35 40 42 42
51 78 31 124 l-14 36 39 6 c48 8 51 25 5 25 -19 0 -37 4 -40 9 -6 9 24 38 74
73 l25 17 -43 42 c-34 32 -41 44 -30 51 17 12 169 2 182 -13z m-399 -45 c-19
-29 -12 -30 26 -3 18 13 36 18 49 14 26 -8 25 -20 -2 -39 -31 -22 -121 -20
-181 2 l-49 19 52 19 c29 11 66 18 86 16 34 -4 35 -5 19 -28z m655 -164 c0
-10 -24 -13 -85 -12 -83 1 -92 6 -20 12 44 3 86 7 93 8 6 1 12 -2 12 -8z m50
-2 c0 -25 -12 -58 -21 -58 -10 0 -12 53 -2 63 10 11 23 8 23 -5z m40 -17 c0
-11 -4 -23 -10 -26 -6 -4 -10 5 -10 19 0 14 5 26 10 26 6 0 10 -9 10 -19z
m-240 -170 c14 -13 38 -32 55 -42 29 -18 30 -18 52 3 19 17 23 19 23 6 0 -78
-73 -56 -175 52 -36 39 -37 41 -10 24 17 -10 41 -29 55 -43z m-371 -70 c16
-11 4 -55 -29 -100 l-20 -29 60 5 c40 4 65 2 75 -7 36 -30 3 -114 -72 -180
-74 -65 -79 -66 -87 -19 -4 23 -18 67 -31 100 -22 52 -24 64 -15 105 23 104
72 155 119 125z"/>
</g>
</svg>
